<svg width="348" height="282" viewBox="0 0 348 282" fill="none" xmlns="http://www.w3.org/2000/svg">
<g id="icon">
<g id="plane">
<g id="website-icon-white 1">
<path id="Vector" d="M275.978 59.3332C275.34 58.7529 274.415 58.6363 273.642 59.0224L119.628 137.337C118.966 137.674 118.531 138.342 118.495 139.085C118.456 139.828 118.818 140.534 119.444 140.94L158.459 166.116L163.284 201.598C163.373 202.263 163.781 202.846 164.374 203.157C164.68 203.32 165.01 203.397 165.345 203.397C165.663 203.397 165.983 203.322 166.28 203.174L197.596 187.438L221.441 199.056C221.97 199.316 222.575 199.34 223.116 199.122C223.658 198.908 224.087 198.476 224.294 197.932C224.294 197.932 276.792 62.7032 276.396 61.9675L276.529 61.6227C276.835 60.8215 276.619 59.911 275.978 59.3332ZM124.739 139.408L266.373 67.3892L159.146 161.607L124.739 139.408ZM242.011 94.3373L254.43 83.426L242.183 97.819C242.011 96.7774 241.967 95.7188 242.05 94.6408C242.057 94.5243 242.023 94.4369 242.011 94.3373ZM239.879 100.526L231.427 110.459C231.204 108.609 230.98 106.759 230.757 104.909C230.733 104.705 230.665 104.535 230.582 104.377L239.129 96.8697C239.223 98.1153 239.481 99.3317 239.879 100.526ZM228.854 113.482L222.099 121.424C221.769 118.615 221.441 115.805 221.111 112.994C221.101 112.906 221.057 112.843 221.035 112.766L228.028 106.62C228.302 108.908 228.579 111.195 228.854 113.482ZM219.518 124.454L211.984 133.314C211.557 129.849 211.132 126.387 210.704 122.922C210.666 122.601 210.527 122.359 210.357 122.147L218.418 115.065C218.785 118.195 219.151 121.327 219.518 124.454ZM209.418 136.329L201.971 145.08C201.5 140.379 201.031 135.681 200.56 130.98C200.553 130.912 200.521 130.864 200.507 130.803L207.934 124.279C208.429 128.295 208.922 132.313 209.418 136.329ZM199.344 148.166L193.947 154.512C193.136 149.241 192.327 143.973 191.516 138.704L197.841 133.144C198.344 138.153 198.841 143.159 199.344 148.166ZM191.448 157.448L184.778 165.285C184.169 158.936 183.557 152.585 182.948 146.233L188.918 140.986C189.761 146.473 190.606 151.961 191.448 157.448ZM182.142 168.388L178.439 172.739C178.393 172.793 178.361 172.861 178.32 172.919C178.303 172.943 178.276 172.955 178.262 172.98C178.25 173.001 178.25 173.023 178.238 173.045C178.213 173.084 178.179 173.12 178.16 173.162L175.402 178.724C174.744 170.649 174.161 162.568 173.697 154.478C173.695 154.442 173.675 154.418 173.673 154.384L180.241 148.612C180.874 155.204 181.508 161.796 182.142 168.388ZM162.453 164.605C162.441 164.506 162.378 164.423 162.354 164.329L170.912 156.807C171.451 165.824 172.095 174.832 172.872 183.833L166.748 196.186L162.453 164.605ZM171.544 195.873L180.867 177.071L193.349 184.916L171.544 195.873ZM221.222 194.324L198.589 183.296L183.169 173.604L266.859 75.2413L221.222 194.324Z" fill="white" stroke="white" stroke-width="0.00213331"/>
<path id="Vector_2" d="M65.708 181.502C65.8099 181.516 65.9119 181.526 66.0139 181.526C67.0288 181.526 67.9174 180.781 68.0704 179.746C68.2646 178.423 68.5074 177.114 68.7988 175.815C69.0489 174.694 68.3423 173.582 67.2206 173.332C66.0964 173.077 64.9869 173.788 64.7368 174.91C64.4236 176.306 64.1613 177.717 63.9525 179.139C63.785 180.278 64.5717 181.337 65.708 181.502Z" fill="white" stroke="white" stroke-width="0.00213331"/>
<path id="Vector_3" d="M66.2276 197.218C67.3663 197.058 68.1578 196.004 68 194.87C67.6674 192.488 67.4974 190.036 67.4974 187.586L67.4998 186.914C67.5144 185.763 66.5942 184.821 65.4458 184.806H65.4215C64.2828 184.806 63.3553 185.722 63.3407 186.863L63.3358 187.586C63.3358 190.225 63.5179 192.87 63.8797 195.443C64.023 196.485 64.9165 197.237 65.9362 197.237C66.0333 197.237 66.1304 197.23 66.2276 197.218Z" fill="white" stroke="white" stroke-width="0.00213331"/>
<path id="Vector_4" d="M157.699 220.111C156.621 219.706 155.422 220.24 155.014 221.313C154.033 223.877 152.87 226.264 151.552 228.405C150.949 229.382 151.255 230.663 152.234 231.268C152.574 231.477 152.95 231.579 153.322 231.579C154.021 231.579 154.703 231.227 155.094 230.588C156.548 228.226 157.828 225.606 158.901 222.802C159.311 221.724 158.775 220.522 157.699 220.111Z" fill="white" stroke="white" stroke-width="0.00213331"/>
<path id="Vector_5" d="M72.3534 209.249C71.2074 206.923 70.2459 204.441 69.4932 201.868C69.1751 200.763 68.0194 200.144 66.9147 200.45C65.8124 200.773 65.1763 201.926 65.5016 203.031C66.3174 205.835 67.3687 208.545 68.624 211.089C68.9858 211.822 69.7239 212.25 70.4911 212.25C70.8019 212.25 71.1151 212.179 71.4089 212.034C72.4383 211.524 72.8608 210.278 72.3534 209.249Z" fill="white" stroke="white" stroke-width="0.00213331"/>
<path id="Vector_6" d="M111 228.857C110.854 228.522 110.713 228.184 110.584 227.84C111.349 227.225 111.594 226.138 111.116 225.239C110.783 224.618 110.186 224.237 109.54 224.154C109.37 223.287 109.247 222.408 109.171 221.51C109.077 220.364 108.047 219.478 106.925 219.609C105.779 219.704 104.93 220.709 105.024 221.852C105.131 223.134 105.321 224.394 105.592 225.621C104.141 226.181 102.645 226.597 101.125 226.856C99.991 227.048 99.2311 228.124 99.4229 229.255C99.6196 230.392 100.702 231.151 101.827 230.957C103.524 230.666 105.185 230.217 106.806 229.612C106.928 229.918 107.052 230.222 107.185 230.523C107.528 231.302 108.29 231.771 109.094 231.771C109.373 231.771 109.654 231.715 109.924 231.596C110.978 231.137 111.458 229.911 111 228.857Z" fill="white" stroke="white" stroke-width="0.00213331"/>
<path id="Vector_7" d="M94.3071 227.004C91.8088 226.689 89.3589 225.963 87.0256 224.853C85.9913 224.36 84.7458 224.8 84.2529 225.837C83.76 226.873 84.1995 228.117 85.2386 228.609C87.9725 229.911 90.8497 230.761 93.7876 231.132C93.8774 231.144 93.9648 231.149 94.0522 231.149C95.0841 231.149 95.98 230.379 96.1136 229.328C96.2544 228.192 95.4459 227.148 94.3071 227.004Z" fill="white" stroke="white" stroke-width="0.00213331"/>
<path id="Vector_8" d="M147.288 233.946C145.436 235.854 143.398 237.401 141.238 238.54C140.223 239.076 139.834 240.334 140.371 241.354C140.742 242.058 141.463 242.463 142.211 242.463C142.539 242.463 142.872 242.386 143.182 242.223C145.729 240.878 148.116 239.069 150.274 236.85C151.076 236.022 151.056 234.708 150.233 233.907C149.408 233.111 148.089 233.123 147.288 233.946Z" fill="white" stroke="white" stroke-width="0.00213331"/>
<path id="Vector_9" d="M78.0785 217.929C77.3501 217.086 76.663 216.219 76.0147 215.328C75.3398 214.398 74.0384 214.192 73.1084 214.869C72.1785 215.547 71.9746 216.848 72.652 217.778C73.3682 218.762 74.1258 219.718 74.9294 220.648C76.0584 221.957 77.2749 223.168 78.5495 224.254C78.9405 224.589 79.4188 224.751 79.8971 224.751C80.4871 224.751 81.0698 224.501 81.4825 224.021C82.2279 223.146 82.1211 221.833 81.247 221.088C80.135 220.136 79.0691 219.072 78.0785 217.929Z" fill="white" stroke="white" stroke-width="0.00213331"/>
<path id="Vector_10" d="M121.607 213.67C120.631 213.068 119.347 213.371 118.745 214.352C118.366 214.962 118.019 215.489 117.725 215.901C116.562 217.543 115.268 219.036 113.877 220.349C113.039 221.139 113.003 222.454 113.792 223.292C114.2 223.727 114.751 223.948 115.304 223.948C115.817 223.948 116.331 223.758 116.732 223.38C118.32 221.879 119.798 220.172 121.122 218.312C121.459 217.836 121.857 217.237 122.29 216.533C122.892 215.554 122.586 214.272 121.607 213.67Z" fill="white" stroke="white" stroke-width="0.00213331"/>
<path id="Vector_11" d="M125.844 209.584C127.065 206.563 127.685 203.897 127.685 201.659C127.685 201.278 127.668 200.904 127.631 200.537C127.515 199.394 126.497 198.59 125.351 198.675C124.21 198.791 123.375 199.811 123.491 200.955C123.516 201.183 123.525 201.418 123.525 201.659C123.525 203.337 122.994 205.539 121.989 208.025C121.556 209.088 122.071 210.3 123.137 210.735C123.392 210.837 123.654 210.888 123.916 210.888C124.737 210.885 125.516 210.392 125.844 209.584Z" fill="white" stroke="white" stroke-width="0.00213331"/>
<path id="Vector_12" d="M120.675 238.885C118.385 237.811 116.363 236.335 114.668 234.5C113.886 233.657 112.568 233.606 111.728 234.383C110.883 235.163 110.832 236.481 111.611 237.326C113.673 239.557 116.13 241.351 118.91 242.65C119.194 242.786 119.495 242.849 119.791 242.849C120.573 242.849 121.323 242.405 121.678 241.653C122.163 240.611 121.717 239.373 120.675 238.885Z" fill="white" stroke="white" stroke-width="0.00213331"/>
<path id="Vector_13" d="M107.107 216.302C107.234 216.326 107.362 216.336 107.489 216.336C108.472 216.336 109.346 215.632 109.531 214.634C109.749 213.449 110.053 212.264 110.427 211.113C110.769 210.055 111.342 208.671 111.997 207.316C112.5 206.282 112.068 205.036 111.031 204.536C109.992 204.024 108.754 204.468 108.253 205.502C107.52 207.02 106.87 208.596 106.469 209.824C106.039 211.145 105.692 212.509 105.439 213.874C105.231 215.005 105.976 216.093 107.107 216.302Z" fill="white" stroke="white" stroke-width="0.00213331"/>
<path id="Vector_14" d="M112.718 201.681C113.102 201.987 113.561 202.135 114.017 202.135C114.627 202.135 115.234 201.865 115.642 201.353C117.412 199.141 119.155 197.925 120.551 197.925L120.813 195.851L120.677 197.929C121.792 197.995 122.814 197.133 122.889 195.987C122.965 194.844 122.095 193.85 120.949 193.775C120.903 193.773 120.597 193.763 120.551 193.763C117.788 193.763 115.044 195.443 112.393 198.755C111.674 199.653 111.82 200.962 112.718 201.681Z" fill="white" stroke="white" stroke-width="0.00213331"/>
<path id="Vector_15" d="M134.83 240.72C132.434 241.126 129.838 241.147 127.218 240.774C126.082 240.63 125.026 241.405 124.868 242.544C124.708 243.682 125.499 244.736 126.636 244.899C128.078 245.103 129.523 245.205 130.931 245.205C132.497 245.205 134.043 245.076 135.527 244.821C136.661 244.629 137.423 243.554 137.229 242.422C137.037 241.288 135.957 240.528 134.83 240.72Z" fill="white" stroke="white" stroke-width="0.00213331"/>
<path id="Vector_16" d="M160.212 208.603C159.088 208.447 158.017 209.22 157.847 210.358C157.653 211.669 157.408 212.988 157.114 214.296C156.862 215.418 157.568 216.53 158.687 216.783C158.84 216.817 158.993 216.834 159.144 216.834C160.096 216.834 160.955 216.176 161.174 215.209C161.489 213.801 161.754 212.381 161.963 210.965C162.133 209.829 161.351 208.773 160.212 208.603Z" fill="white" stroke="white" stroke-width="0.00213331"/>
<path id="Vector_17" d="M221.108 180.327C222.682 176.554 224.257 172.778 225.831 169.003C226.559 167.259 223.718 166.502 223 168.223C221.426 171.996 219.851 175.772 218.277 179.547C217.551 181.288 220.392 182.048 221.108 180.327Z" fill="white" stroke="white" stroke-width="0.00213331"/>
<path id="Vector_18" d="M228.982 161.454C232.131 153.905 235.28 146.357 238.43 138.808C239.158 137.065 236.317 136.307 235.599 138.029C232.449 145.577 229.3 153.126 226.151 160.675C225.425 162.415 228.264 163.175 228.982 161.454Z" fill="white" stroke="white" stroke-width="0.00213331"/>
</g>
</g>
<g id="decoration">
<path id="star-left" d="M32.5688 98.1726C33.1001 96.1993 35.8999 96.1993 36.4312 98.1726L37.9129 103.676C38.0983 104.364 38.6359 104.902 39.3242 105.087L44.8274 106.569C46.8007 107.1 46.8007 109.9 44.8274 110.431L39.3242 111.913C38.6359 112.098 38.0983 112.636 37.9129 113.324L36.4312 118.827C35.8999 120.801 33.1001 120.801 32.5688 118.827L31.0871 113.324C30.9017 112.636 30.3641 112.098 29.6758 111.913L24.1726 110.431C22.1993 109.9 22.1993 107.1 24.1726 106.569L29.6758 105.087C30.3641 104.902 30.9017 104.364 31.0871 103.676L32.5688 98.1726Z" fill="white"/>
<path id="star-right" d="M313.569 196.173C314.1 194.199 316.9 194.199 317.431 196.173L318.913 201.676C319.098 202.364 319.636 202.902 320.324 203.087L325.827 204.569C327.801 205.1 327.801 207.9 325.827 208.431L320.324 209.913C319.636 210.098 319.098 210.636 318.913 211.324L317.431 216.827C316.9 218.801 314.1 218.801 313.569 216.827L312.087 211.324C311.902 210.636 311.364 210.098 310.676 209.913L305.173 208.431C303.199 207.9 303.199 205.1 305.173 204.569L310.676 203.087C311.364 202.902 311.902 202.364 312.087 201.676L313.569 196.173Z" fill="white"/>
<path id="little-star-left" d="M8.16338 230.821C8.66868 228.945 11.3313 228.945 11.8366 230.821C12.0129 231.476 12.5242 231.987 13.1787 232.163C15.0554 232.669 15.0554 235.331 13.1787 235.837C12.5242 236.013 12.0129 236.524 11.8366 237.179C11.3313 239.055 8.66868 239.055 8.16338 237.179C7.98714 236.524 7.47584 236.013 6.82127 235.837C4.94458 235.331 4.94458 232.669 6.82127 232.163C7.47584 231.987 7.98714 231.476 8.16338 230.821Z" fill="white"/>
<circle id="circle-bottom-left" cx="188" cy="277" r="5" fill="white"/>
<circle id="circle-bottom-left_2" cx="126.5" cy="7.5" r="7.5" fill="white"/>
<circle id="circle-top-right" cx="338" cy="14" r="10" fill="white"/>
</g>
</g>
</svg>
